<svg xmlns="http://www.w3.org/2000/svg" viewBox="0 0 580 426" font-family="monospace" font-size="13">
  <!-- Background -->
  <rect width="580" height="426" fill="#1a1a2e" rx="4"/>

  <!-- Title -->
  <text x="310" y="26" fill="#e0e0e0" text-anchor="middle" font-size="14" font-weight="bold">Noise XX Message 3 &#8212; phase 0x3 (85&#8211;111 bytes)</text>

  <!-- Row 0: Common prefix (bytes 0-3) -->
  <text x="50" y="62" fill="#666" font-size="10" text-anchor="end">0&#8211;3</text>

  <rect x="55" y="36" width="95" height="52" fill="#2d4a7a" stroke="#4a90d9" stroke-width="1.5" rx="3"/>
  <text x="102" y="60" fill="#e0e0e0" text-anchor="middle" font-size="12" font-weight="bold">ver</text>
  <text x="102" y="78" fill="#8ab4f8" text-anchor="middle" font-size="10">4 bits</text>

  <rect x="150" y="36" width="95" height="52" fill="#2d5a4a" stroke="#4ad99a" stroke-width="1.5" rx="3"/>
  <text x="197" y="60" fill="#e0e0e0" text-anchor="middle" font-size="12" font-weight="bold">phase</text>
  <text x="197" y="78" fill="#8af8c8" text-anchor="middle" font-size="10">4 bits</text>

  <rect x="245" y="36" width="130" height="52" fill="#5a3d2d" stroke="#d9904a" stroke-width="1.5" rx="3"/>
  <text x="310" y="60" fill="#e0e0e0" text-anchor="middle" font-size="12" font-weight="bold">flags</text>
  <text x="310" y="78" fill="#f8c88a" text-anchor="middle" font-size="10">1 byte</text>

  <rect x="375" y="36" width="200" height="52" fill="#4a2d5a" stroke="#b04ad9" stroke-width="1.5" rx="3"/>
  <text x="475" y="60" fill="#e0e0e0" text-anchor="middle" font-size="12" font-weight="bold">payload_len</text>
  <text x="475" y="78" fill="#d8a0f8" text-anchor="middle" font-size="10">2 bytes LE</text>

  <!-- Row 1: sender_idx + receiver_idx (bytes 4-11) -->
  <text x="50" y="114" fill="#666" font-size="10" text-anchor="end">4&#8211;11</text>

  <rect x="55" y="88" width="260" height="52" fill="#2d5a5a" stroke="#4ad9d9" stroke-width="1.5" rx="3"/>
  <text x="185" y="112" fill="#e0e0e0" text-anchor="middle" font-size="12" font-weight="bold">sender_idx</text>
  <text x="185" y="130" fill="#8af8f8" text-anchor="middle" font-size="10">4 bytes LE</text>

  <rect x="315" y="88" width="260" height="52" fill="#2d5a4a" stroke="#4ad99a" stroke-width="1.5" rx="3"/>
  <text x="445" y="112" fill="#e0e0e0" text-anchor="middle" font-size="12" font-weight="bold">receiver_idx</text>
  <text x="445" y="130" fill="#8af8c8" text-anchor="middle" font-size="10">4 bytes LE</text>

  <!-- Noise XX msg3 bracket -->
  <text x="10" y="240" fill="#777" font-size="10" text-anchor="middle" transform="rotate(-90, 10, 240)">Noise XX msg3 (73 bytes base)</text>
  <line x1="18" y1="140" x2="18" y2="348" stroke="#555" stroke-width="1"/>
  <line x1="18" y1="140" x2="23" y2="140" stroke="#555" stroke-width="1"/>
  <line x1="18" y1="348" x2="23" y2="348" stroke="#555" stroke-width="1"/>

  <!-- Row 2: encrypted_static (bytes 12-60, 49 bytes) -->
  <text x="50" y="166" fill="#666" font-size="10" text-anchor="end">12&#8211;60</text>

  <rect x="55" y="140" width="520" height="52" fill="#5a2d3d" stroke="#d94a6a" stroke-width="1.5" rx="3"/>
  <text x="315" y="164" fill="#e0e0e0" text-anchor="middle" font-size="12" font-weight="bold">encrypted_static</text>
  <text x="315" y="182" fill="#f88aaa" text-anchor="middle" font-size="10">49 bytes (static key 33 + AEAD tag 16)</text>

  <!-- Row 3: encrypted_epoch (bytes 61-84, 24 bytes) -->
  <text x="50" y="218" fill="#666" font-size="10" text-anchor="end">61&#8211;84</text>

  <rect x="55" y="192" width="520" height="52" fill="#4a2d5a" stroke="#b04ad9" stroke-width="1.5" rx="3"/>
  <text x="315" y="216" fill="#e0e0e0" text-anchor="middle" font-size="12" font-weight="bold">encrypted_epoch</text>
  <text x="315" y="234" fill="#d8a0f8" text-anchor="middle" font-size="10">24 bytes (epoch 8 + AEAD tag 16)</text>

  <!-- Row 4: negotiation payload (variable, optional) -->
  <text x="50" y="270" fill="#666" font-size="10" text-anchor="end">85+</text>

  <rect x="55" y="244" width="520" height="52" fill="#2d4a4a" stroke="#4a9090" stroke-width="1.5" rx="3" stroke-dasharray="4,3"/>
  <text x="315" y="268" fill="#e0e0e0" text-anchor="middle" font-size="12" font-weight="bold">encrypted negotiation payload</text>
  <text x="315" y="286" fill="#8ad8d8" text-anchor="middle" font-size="10">26 bytes typical (10 payload + 16 AEAD tag)</text>

  <!-- Row 5: explanation -->
  <rect x="55" y="310" width="520" height="38" fill="#1f1f3a" stroke="#444" stroke-width="1" rx="3"/>
  <text x="315" y="334" fill="#888" text-anchor="middle" font-size="10">negotiation appended via encrypt_payload() &#8212; extends Noise hash chain</text>

  <!-- Total -->
  <text x="310" y="378" fill="#777" font-size="10" text-anchor="middle">base: 85 bytes &#183; with FMP negotiation: 111 bytes</text>
  <text x="310" y="395" fill="#777" font-size="10" text-anchor="middle">pattern: &#8594; s, se</text>
</svg>
